<?xml version="1.0" encoding="UTF-8" standalone="no"?>
<svg
   xmlns:dc="http://purl.org/dc/elements/1.1/"
   xmlns:cc="http://creativecommons.org/ns#"
   xmlns:rdf="http://www.w3.org/1999/02/22-rdf-syntax-ns#"
   xmlns:svg="http://www.w3.org/2000/svg"
   xmlns="http://www.w3.org/2000/svg"
   xmlns:sodipodi="http://sodipodi.sourceforge.net/DTD/sodipodi-0.dtd"
   xmlns:inkscape="http://www.inkscape.org/namespaces/inkscape"
   version="1.1"
   x="0px"
   y="0px"
   viewBox="0 0 50 62.5"
   enable-background="new 0 0 50 50"
   xml:space="preserve"
   id="svg10"
   sodipodi:docname="noun_Cat_549889.svg"
   inkscape:version="0.92.3 (2405546, 2018-03-11)"><metadata
     id="metadata16"><rdf:RDF><cc:Work
         rdf:about=""><dc:format>image/svg+xml</dc:format><dc:type
           rdf:resource="http://purl.org/dc/dcmitype/StillImage" /><dc:title></dc:title></cc:Work></rdf:RDF></metadata><defs
     id="defs14" /><sodipodi:namedview
     pagecolor="#ffffff"
     bordercolor="#666666"
     borderopacity="1"
     objecttolerance="10"
     gridtolerance="10"
     guidetolerance="10"
     inkscape:pageopacity="0"
     inkscape:pageshadow="2"
     inkscape:window-width="1920"
     inkscape:window-height="1164"
     id="namedview12"
     showgrid="false"
     inkscape:zoom="3.776"
     inkscape:cx="-6.5148305"
     inkscape:cy="31.25"
     inkscape:window-x="1920"
     inkscape:window-y="0"
     inkscape:window-maximized="1"
     inkscape:current-layer="svg10" /><g
     id="g4"><path
       d="M3,31.6c0.1,0.6,0.6,1.1,1.2,1.1c0.1,0,0.1,0,0.2,0l6-0.9c0.3,1.1,0.8,2.1,1.3,3.1L6.9,37c-0.6,0.3-0.9,1-0.7,1.6   c0.2,0.5,0.7,0.8,1.1,0.8c0.2,0,0.3,0,0.5-0.1l5.3-2.3c1.4,1.7,3.1,2.8,5.2,3.1c0.7,1.2,2.6,3.4,6.7,3.4c4.1,0,5.9-2.2,6.7-3.4   c2.1-0.2,3.8-1.4,5.2-3.1l5.3,2.3c0.2,0.1,0.3,0.1,0.5,0.1c0.5,0,0.9-0.3,1.1-0.8c0.3-0.6,0-1.4-0.7-1.6l-4.9-2.1   c0.5-1,0.9-2,1.3-3.1l6,0.9c0.1,0,0.1,0,0.2,0c0.6,0,1.1-0.4,1.2-1.1c0.1-0.7-0.4-1.3-1.1-1.4l-5.8-0.8c0.2-1.1,0.3-2.2,0.3-3.3   V7.7c0-0.5-0.3-0.9-0.7-1.1c-0.4-0.2-0.9-0.2-1.3,0.1l-7.7,5.1c-3.6-1.5-7.8-1.5-11.5,0l-7.7-5.1c-0.4-0.3-0.9-0.3-1.3-0.1   C9.9,6.8,9.6,7.3,9.6,7.7V26c0,1.1,0.1,2.2,0.3,3.3l-5.8,0.8C3.4,30.3,2.9,31,3,31.6z M21.4,39.9c1.7-0.4,2.8-1.2,3.6-2.1   c0.8,0.9,1.9,1.7,3.6,2.1C27.9,40.5,26.7,41,25,41C23.3,41,22.1,40.5,21.4,39.9z M12.1,26V10l6.3,4.2c0.4,0.3,0.9,0.3,1.3,0.1   c3.3-1.5,7.2-1.5,10.6,0c0.4,0.2,0.9,0.2,1.3-0.1l6.3-4.2v16c0,0.9-0.1,2-0.3,3l-3.5-0.5c-0.7-0.1-1.3,0.4-1.4,1.1   c-0.1,0.7,0.4,1.3,1.1,1.4l3.2,0.5c-0.3,0.9-0.6,1.7-1.1,2.5l-3.7-1.6c-0.6-0.3-1.4,0-1.6,0.7c-0.3,0.6,0,1.4,0.7,1.6l3.2,1.4   c-1,1-2.2,1.7-3.6,1.7c-3.6,0-4.4-2.1-4.6-2.7c0-0.1,0-0.1,0-0.2v-1.1c0,0,0,0,0,0l0,0L28,32c0.5-0.5,0.7-1.3,0.4-1.9   c-0.3-0.7-0.9-1.1-1.6-1.1h-3.5c-0.7,0-1.4,0.4-1.6,1.1c-0.3,0.7-0.1,1.4,0.4,1.9l1.7,1.7c0,0,0,0,0,0c0,0,0,0,0,0v1.2   c-0.1,0.4-0.8,2.7-4.6,2.7c-1.4,0-2.6-0.6-3.6-1.7l3.2-1.4c0.6-0.3,0.9-1,0.7-1.6c-0.3-0.6-1-0.9-1.6-0.7L14,33.9   c-0.4-0.8-0.8-1.6-1.1-2.5l3.2-0.5c0.7-0.1,1.2-0.7,1.1-1.4c-0.1-0.7-0.7-1.2-1.4-1.1L12.4,29C12.2,28,12.1,27,12.1,26z"
       id="path2" /></g></svg>